<?xml version="1.0" encoding="UTF-8" standalone="no"?>
<!DOCTYPE svg PUBLIC "-//W3C//DTD SVG 1.1//EN" "http://www.w3.org/Graphics/SVG/1.1/DTD/svg11.dtd">
<svg version="1.1" xmlns="http://www.w3.org/2000/svg" xmlns:xlink="http://www.w3.org/1999/xlink" preserveAspectRatio="xMidYMid meet" viewBox="0 0 640 640" width="640" height="640"><defs><path d="M369.56 348.09L467.51 348.09L482.2 234.29L369.56 234.29C369.56 190.7 369.56 166.49 369.56 161.65C369.56 128.71 378.67 106.26 425.96 106.26C429.97 106.26 450.04 106.25 486.17 106.24C486.17 45.17 486.17 11.24 486.17 4.46C475.75 3.1 440.01 0 398.41 0C311.55 0 252.07 53.02 252.07 150.38C252.07 155.97 252.07 183.94 252.07 234.29L153.83 234.29L153.83 348.09L252.07 348.09L252.07 640L369.56 640L369.56 348.09Z" id="a82unULll"></path></defs><g><g><g><use xlink:href="#a82unULll" opacity="1" fill="#ffffff" fill-opacity="1"></use><g><use xlink:href="#a82unULll" opacity="1" fill-opacity="0" stroke="#000000" stroke-width="1" stroke-opacity="0"></use></g></g></g></g></svg>